<?xml version="1.0" encoding="UTF-8"?>
<svg version="1.1" xmlns="http://www.w3.org/2000/svg" width="50" height="50">
<path d="M0 0 C13.86 0 27.72 0 42 0 C39.68738789 3.85435352 38.06844249 6.17318822 34.98828125 9.20703125 C33.85229492 10.33334961 33.85229492 10.33334961 32.69335938 11.48242188 C31.51483398 12.63581055 31.51483398 12.63581055 30.3125 13.8125 C29.51521484 14.60076172 28.71792969 15.38902344 27.89648438 16.20117188 C25.9354449 18.13872585 23.96988119 20.07144276 22 22 C18.68434277 20.55250158 16.48093925 18.73814825 13.92578125 16.19140625 C13.17619141 15.44439453 12.42660156 14.69738281 11.65429688 13.92773438 C10.88150391 13.14720703 10.10871094 12.36667969 9.3125 11.5625 C8.52810547 10.78583984 7.74371094 10.00917969 6.93554688 9.20898438 C5.81696289 8.0865332 5.81696289 8.0865332 4.67578125 6.94140625 C3.99427002 6.25763916 3.31275879 5.57387207 2.6105957 4.86938477 C1 3 1 3 0 0 Z " fill="#FFFFFF" transform="translate(4,17)"/>
</svg>
